<?xml version="1.0" encoding="UTF-8"?>
<svg id="Layer_2" xmlns="http://www.w3.org/2000/svg" version="1.1" viewBox="0 0 1007.9 183.2">
  <!-- Generator: Adobe Illustrator 29.0.1, SVG Export Plug-In . SVG Version: 2.1.0 Build 192)  -->
  <defs>
    <style>
      .st0 {
        fill: none;
      }

      .st1 {
        fill: #fff;
        stroke: #000;
        stroke-miterlimit: 10;
        stroke-width: 2px;
      }
    </style>
  </defs>
  <rect class="st0" width="1007.9" height="183.2"/>
  <g>
    <path class="st1" d="M346,98.5c.1,8.8.4,17.4.5,26.2,0,4.3-1.6,5.8-5.8,5.8s-8.2-.1-12.3-.4c-.9,0-1.7-.1-2.5-.4-1.6-.4-2.2-1.1-2.2-2.8,0-1.3,0-2.7,0-4.1v-31.4h-4.7c-1.9,0-3.9,0-6,0-2.6-.4-4-1.7-4.1-4.5-.1-4.5-.1-9.1,0-13.6,0-3.2,1.5-4.4,4.7-4.3,12.5,0,25,.1,37.5.3,1.4,0,2.8-.1,4.2-.2,2.4-.1,3.9.9,4.1,3.2.3,1.5,0,3.3,0,4.9,0,3.3-.1,6.6-.4,9.7-.3,2.7-.9,3.2-3.8,3.2s-5.8.3-9.1.5v7.9h0Z"/>
    <path class="st1" d="M396.1,130.3c-6.3.4-12.8,0-19.3.1-8.3.1-13-8.1-13.5-15-.9-8.9-.9-17.7-.4-26.6.1-5.4,1.4-10.5,5-14.9,3.7-4.5,10.8-4.7,16-5,3.8-.3,7.6-.1,11.5-.1,8.4,0,14.4,5.6,14.9,14.1.7,10.8,1.2,20.7.4,31.4-.2,3.4-.6,6.3-2.1,9.1-2.8,5-7.3,6.6-12.5,6.8h0ZM383,92.6c0,4.4,0,8.8.1,13.3,0,9.4,8.9,7.9,8.9.7,0-4.8,0-10.4-.1-15.3-.7-6.8-8.9-4.5-8.9,1.3h0Z"/>
    <path class="st1" d="M452.7,97.6c4.3,2,6.7,5.5,7.1,10.2.2,2.6.2,5.1.1,7.7,0,2.3-1.1,4.3-2.4,6.2-3,4.3-7.1,7.3-12.5,8.2-2.5.4-5,.5-7.6.5-4.8,0-9.6,0-14.7,0-1.4,0-2.7-.1-4.2-.3-2.2-.2-3-.9-3.2-3.3,0-1.1,0-2.3,0-3.5-1-11.7-1.1-23.3-1.1-34.8,0-4.9-.1-9.7-.1-14.5s0-1.7,0-2.5c.4-1.9,1.1-2.5,3-2.5,8.1.3,16.4-.3,24.3.7,10.7,1.4,15.6,8.3,13.8,18.7-.5,2.4-1.9,4.8-3,7-.2.5-.6.9-.9,1.4.5.4.9.6,1.3.9h0ZM438.8,90.9c2-.3,2.5-2,1.4-3.6-.5-.8-1.1-1.5-2-1.8-1.9-.6-4-.3-5.8,0,0,2.2.2,3.8.3,5.9,2.1,0,4.1,0,6.1-.4h0ZM438.5,113.6c1.9-.1,3.2-1.2,3.5-2.2.1-1.3-1-2.9-2.8-3.6-.1,0-.4-.1-.7-.1-1.7-.1-3.5-.1-5.3-.1v6.1c1.9,0,3.6.1,5.3,0h0Z"/>
    <path class="st1" d="M490.3,71.5c.3-2.7,2.4-2.2,4.7-2.4,4,0,7.9,0,11.8,0s2.2.2,2.2,1.9c0,16.3-.3,30.8-.6,45.1,0,9.2-3.3,13.8-11.5,14.3-10.4.1-19.3-.2-28.1.2-3.3,0-3.7-1.1-3.7-3.5.1-4.6-.2-8.7,0-13.2,0-2,.7-2.5,2.9-2.6,4.7-.2,9.8,0,14.5-.2,2.3,0,4.4-.7,5.8-2.6.1-.3.4-.8.7-1.5-4.7-.1-9.1.4-13.6.4-2.1,0-6.3,0-8.4-.4-1.9-.2-3.3-2.2-3.5-4.7-.4-3.5-.5-6.8-.6-10.2,0-5.2-.1-10.3-.1-18.7,0-2.1-.1-4,2.3-4,4.9,0,12,0,16.9,0,.6,0,1.1,0,1.7,0,1.9.2,2.4.8,2.3,2.8-.1,4-.4,8.1-.5,12.2,0,2-.2,4.1,0,6.1.1,3.3,2.2,2.9,4.6,2.7.1-7.1-.2-14.5.4-21.6h0Z"/>
    <path class="st1" d="M532.2,119.9c0,2.5.3,5,.2,7.7-.1,2.1-.9,2.7-3,2.7-5,0-9.9-.1-14.8-.3-1.9-.1-2.4-.6-2.4-2.9v-23.2c0-10.3,0-20.5,0-30.7s.2-4.5,4.5-4.3c4.5,0,8.9.1,13.3,0,3.2,0,4,.7,3.8,4.1-.1,5-.2,10-.4,15,0,0,.2.2.4.5.6-.7.9-1.3,1.5-2,2.6-4.5,5.3-9.2,8-13.8.4-.7.7-1.4,1.2-2.1,1.4-2.3,2-2.7,4.5-1.4,4.3,2.3,8.6,4.8,12.7,7.3,1.8.9,2.1,2.1,1.2,4-1,1.5-1.9,3-2.9,4.4-4.1,5.3-8,10.7-12,16-.3.3-.4.7-.9,1.3.9.8,1.7,1.7,2.7,2.4,3.6,3.2,7.3,6.3,10.7,9.5.8.7,1.6,1.7,2.4,2.7.9,1.4.8,2.6-.7,3.7-4.5,3.1-9.3,6.2-13.9,9.4-1.3.8-2.5.4-3.6-.5-2.1-2-4.1-4.2-6.1-6.5-1.9-2.2-4-4.7-6-7,0,0-.2,0-.4.1v3.7h0Z"/>
    <path class="st1" d="M570.6,89.8c-.6-.2-1.2-.4-1.8-.7-2.7-1.5-3.2-3.2-1.9-6.1,2-4.1,4.2-8.3,6.2-12.4.9-1.2,1.9-1.6,3.2-1.6h20c3,0,3.2.5,3.2,3.3.1,11.6.4,23.3.4,35.1.1,6.3-.1,12.5-.3,18.8-.1,3.1-1.1,4-4.2,4h-15.7c-2.6-.1-3-.6-3-3.1,0-10.8,0-21.5.2-32.4v-2.7c-2.2-.8-4.3-1.5-6.2-2.3h0Z"/>
    <path class="st1" d="M603.3,74.6v-1.9c.4-2.9,1.4-3.9,4.2-3.9,5,0,9.9,0,15,.1,3.1.1,6.2.3,9.2.9,8.3,1.7,13.6,6.9,15.8,15.1,1.8,6,2.4,12.2,1.9,18.7-.4,4.3-1.7,8.7-3.7,12.7-4,6.8-9.7,11.4-17.5,13.2-2.5.6-5,.9-7.5.9-4.3,0-8.5,0-12.8,0s-4.2-1.1-4.2-4.4c0-8.8,0-17.1,0-25.5,0-8.6-.4-17.1-.4-25.8ZM628.7,108.7c.2-1,.5-2.1.5-3.1,0-3.2,0-6.5-.2-9.7,0-1.4-.2-2.9-.7-4.4-.7-2.6-1.9-4.4-5-3.6.2,7.3.6,16,.8,23.5,2.9.7,4-.9,4.6-2.7h0Z"/>
    <path class="st1" d="M652.9,74.6v-1.9c.4-2.9,1.4-3.9,4.2-3.9,5,0,9.9,0,15,.1,3.1.1,6.2.3,9.2.9,8.3,1.7,13.6,6.9,15.8,15.1,1.8,6,2.4,12.2,1.9,18.7-.4,4.3-1.7,8.7-3.7,12.7-4,6.8-9.7,11.4-17.5,13.2-2.5.6-5,.9-7.5.9-4.3,0-8.5,0-12.8,0s-4.2-1.1-4.2-4.4c0-8.8,0-17.1,0-25.5,0-8.6-.4-17.1-.4-25.8ZM678.2,108.7c.2-1,.5-2.1.5-3.1,0-3.2,0-6.5-.2-9.7,0-1.4-.2-2.9-.7-4.4-.7-2.6-1.9-4.4-5-3.6.2,7.3.6,16,.8,23.5,2.9.7,4-.9,4.6-2.7h0Z"/>
  </g>
</svg>